<svg id="Layer_1" data-name="Layer 1" xmlns="http://www.w3.org/2000/svg" xmlns:xlink="http://www.w3.org/1999/xlink" viewBox="0 0 211.61 50.68"><defs><style>.cls-1{fill:none;}.cls-2{clip-path:url(#clip-path);}.cls-3{clip-path:url(#clip-path-2);}.cls-4{clip-path:url(#clip-path-3);}</style><clipPath id="clip-path" transform="translate(-73.63 -138.73)"><rect class="cls-1" x="120.11" y="138.73" width="27.75" height="6"/></clipPath><clipPath id="clip-path-2" transform="translate(-73.63 -138.73)"><rect class="cls-1" x="120.11" y="182.6" width="27.75" height="6"/></clipPath><clipPath id="clip-path-3" transform="translate(-73.63 -138.73)"><rect class="cls-1" x="120.11" y="160.67" width="27.75" height="6"/></clipPath></defs><path d="M73.63,184.83l27.67-40.48v-.22H76v-5.4h33.66v3.92L82.14,183v.22H110v5.4H73.63Z" transform="translate(-73.63 -138.73)"/><path d="M158.24,188.6V138.73h7l16,25.23a140.68,140.68,0,0,1,8.95,16.2l.15-.07c-.59-6.66-.74-12.73-.74-20.49V138.73h6.07V188.6h-6.51l-15.84-25.31A159.51,159.51,0,0,1,164,146.65l-.22.07c.37,6.29.52,12.28.52,20.57V188.6Z" transform="translate(-73.63 -138.73)"/><path d="M219,188.6V167.44l-15.76-28.71h7.32l7,13.76c1.93,3.78,3.41,6.81,5,10.29h.15c1.4-3.26,3.11-6.51,5-10.29l7.18-13.76h7.32l-16.72,28.63V188.6Z" transform="translate(-73.63 -138.73)"/><path d="M255,138.73v29.52c0,11.17,5,15.91,11.62,15.91,7.4,0,12.13-4.88,12.13-15.91V138.73h6.51v29.08c0,15.31-8.06,21.6-18.87,21.6-10.21,0-17.9-5.84-17.9-21.31V138.73Z" transform="translate(-73.63 -138.73)"/><g class="cls-2"><rect x="46.48" width="27.75" height="6"/></g><g class="cls-3"><rect x="46.48" y="43.87" width="27.75" height="6"/></g><g class="cls-4"><rect x="46.48" y="21.93" width="27.75" height="6"/></g></svg>