<?xml version="1.0" standalone="no"?>
<!DOCTYPE svg PUBLIC "-//W3C//DTD SVG 20010904//EN"
 "http://www.w3.org/TR/2001/REC-SVG-20010904/DTD/svg10.dtd">
<svg version="1.0" xmlns="http://www.w3.org/2000/svg"
 width="1600.000000pt" height="1200.000000pt" viewBox="0 0 1600.000000 1200.000000"
 preserveAspectRatio="xMidYMid meet">

<g transform="translate(0.000000,1200.000000) scale(0.100000,-0.100000)"
fill="#000000" stroke="none">
<path d="M5990 7660 l0 -30 175 0 c96 0 175 -3 175 -6 0 -4 -83 -128 -185
-276 -138 -201 -185 -276 -185 -299 l0 -29 233 2 232 3 0 25 0 25 -191 5 -191
5 189 275 c143 207 188 280 186 300 l-3 25 -217 3 -218 2 0 -30z"/>
<path d="M6530 7660 l0 -30 200 0 200 0 0 30 0 30 -200 0 -200 0 0 -30z"/>
<path d="M7037 7684 c-4 -4 -7 -155 -7 -336 l0 -328 30 0 30 0 0 284 c0 157 3
287 8 289 4 3 79 -125 167 -284 l160 -289 38 0 37 0 -2 333 -3 332 -27 3 -28
3 0 -271 c0 -177 -3 -271 -10 -268 -6 2 -76 122 -158 268 l-147 265 -40 3
c-23 2 -44 0 -48 -4z"/>
<path d="M7600 7678 c0 -6 44 -95 98 -197 l97 -186 5 -135 5 -135 33 -3 32 -3
0 133 1 133 103 195 c57 107 101 198 99 203 -2 4 -16 7 -31 7 -25 0 -34 -15
-117 -176 l-90 -175 -87 176 c-85 168 -89 175 -118 175 -17 0 -30 -5 -30 -12z"/>
<path d="M8184 7676 c-3 -8 -4 -127 -2 -263 3 -209 6 -254 21 -288 38 -86 92
-114 215 -115 130 0 187 32 219 124 15 44 18 87 18 301 l0 250 -30 0 -30 0 -5
-260 c-6 -289 -10 -309 -73 -342 -43 -23 -151 -23 -194 0 -63 33 -67 53 -73
342 l-5 260 -28 3 c-17 2 -29 -2 -33 -12z"/>
<path d="M6530 7360 l0 -30 200 0 200 0 0 30 0 30 -200 0 -200 0 0 -30z"/>
<path d="M6530 7050 l0 -30 200 0 200 0 0 30 0 30 -200 0 -200 0 0 -30z"/>
</g>
</svg>
